<?xml version="1.0" encoding="utf-8"?>
<!-- Generator: Adobe Illustrator 23.0.6, SVG Export Plug-In . SVG Version: 6.00 Build 0)  -->
<svg version="1.1" id="Calque_1" xmlns="http://www.w3.org/2000/svg" xmlns:xlink="http://www.w3.org/1999/xlink" x="0px" y="0px"
	 viewBox="0 0 118 92" style="enable-background:new 0 0 118 92;" xml:space="preserve">
<style type="text/css">
	.st0{fill:none;stroke:#FFFFFF;stroke-width:5;stroke-linejoin:round;}
	.st1{fill:#FFFFFF;}
</style>
<rect x="3" y="3" class="st0" width="112" height="86"/>
<path class="st1" d="M22.1,36.4c-1.6,0-2.9-0.3-4.1-1c-1.2-0.7-2.1-1.7-2.8-3.1c-0.6-1.3-1-2.9-1-4.7s0.3-3.4,1-4.7
	c0.7-1.3,1.6-2.3,2.8-3c1.2-0.7,2.6-1,4.1-1c1.6,0,2.9,0.3,4.1,1c1.2,0.7,2.1,1.7,2.8,3c0.7,1.3,1,2.9,1,4.7s-0.3,3.4-1,4.7
	c-0.6,1.3-1.6,2.4-2.8,3.1C25,36.1,23.6,36.4,22.1,36.4z M22.1,32.6c1,0,1.8-0.4,2.4-1.3c0.6-0.9,0.9-2.1,0.9-3.7
	c0-1.5-0.3-2.7-0.9-3.6c-0.6-0.8-1.4-1.3-2.4-1.3s-1.8,0.4-2.4,1.3c-0.6,0.8-0.9,2-0.9,3.6c0,1.5,0.3,2.8,0.9,3.7
	C20.3,32.1,21.1,32.6,22.1,32.6z M32.6,19.2h4.6l3.7,7.5l1.6,3.8h0.1c0-0.2-0.1-0.5-0.1-1c-0.3-2.4-0.4-4.2-0.4-5.4v-4.9h4.3v16.9
	h-4.6L38,28.5l-1.6-3.8h-0.1l0.2,1.4c0.3,2.2,0.4,3.9,0.4,5.1v4.9h-4.3V19.2z M57.7,23h-4.5v-3.7h13.4V23h-4.5v13.2h-4.5V23z
	 M68.7,19.2h4.5v6.3h5v-6.3h4.5v16.9h-4.5v-6.7h-5v6.7h-4.5V19.2z M86,19.2H97V23h-6.4v2.7H96v3.7h-5.5v3h6.7v3.7H86V19.2z
	 M14.7,44.2h8.1l1.7,13.1l1,9.4h0.2l1.7-9.4l2.9-13.1h6.6l2.9,13.1L41,65l0.3,1.6h0.2l1-9.4l1.7-13.1h7.5l-5,29.9h-10l-2.3-11.9
	c-0.4-2.1-0.8-4.4-1.1-7h-0.2l-0.2,1.3c-0.4,2.7-0.7,4.6-0.9,5.7l-2.2,11.9h-9.8L14.7,44.2z M69.2,67.8h-8.4l-1.5,6.3h-8.1l9.1-29.9
	h9.6L79,74.1h-8.4L69.2,67.8z M67.8,61.6l-0.5-2.1c-0.4-1.6-0.8-3.3-1.2-5.2l-1-4.3h-0.2l-0.3,1.3c-0.7,3.4-1.3,6.1-1.8,8.2
	l-0.5,2.1H67.8z M85.8,63.8l-9-19.6h8.5l2.2,6.3l1.2,3.7c0.2,0.4,0.3,0.8,0.5,1.3c0.2,0.5,0.4,1,0.6,1.6h0.2c0.5-1.4,0.9-2.7,1.4-4
	c0.1-0.3,0.4-1.2,0.9-2.7l2.2-6.3h8.3l-9,19.6v10.3h-7.9V63.8z"/>
</svg>
